<svg id="Layer_2" data-name="Layer 2" xmlns="http://www.w3.org/2000/svg" viewBox="0 0 490.2 198.12"><defs><style>.cls-1{fill:#db65b5;}.cls-2{fill:none;stroke:#000;stroke-linecap:round;stroke-linejoin:round;stroke-width:3px;}</style></defs><path class="cls-1" d="M34.94,196.94c-37.54,50.8-28.22,66-21.71,73.4s29,11.75,47-8c-.38,6.89-13.4,82.72,28.6,85.4,40.85-2.55,40.47-33.7,41.62-55.91S129,193.87,129,193.87s.13-31.78-29.87-36.51C68.73,152.57,51.86,174,34.94,196.94Z" transform="translate(-5.77 -151.08)"/><path d="M88.81,349.2h-.1A28,28,0,0,1,68.18,339c-15.79-18.92-11.56-58.43-9.92-72.61-10.7,10-21.65,11.65-27.66,11.65h-.28c-7.64-.06-14.62-2.64-18.21-6.73C3.51,261.55-1.81,244.15,33.73,196h0c15.66-21.2,33.42-45.23,65.65-40.16,30.92,4.87,31.14,37.67,31.14,38,0,.7,2.54,76,1.4,98,0,1-.09,2-.14,3-1.05,21.87-2.48,51.83-42.88,54.36Zm-28.6-88.4a1.66,1.66,0,0,1,.58.11,1.5,1.5,0,0,1,.92,1.47c0,.67-.18,1.88-.37,3.55-1.52,13.07-6.15,52.85,9.15,71.17a25.12,25.12,0,0,0,18.32,9.1c37.62-2.4,38.92-29.62,40-51.51.05-1,.1-2,.15-3,1.13-21.9-1.38-97-1.41-97.79,0-1.3-.26-30.61-28.6-35.08s-43.84,13.36-62.78,39h0c-38.65,52.33-26.83,65.78-21.78,71.52,2.28,2.59,7.83,5.64,16,5.71,6,0,17.74-1.67,28.75-13.77A1.5,1.5,0,0,1,60.21,260.8Z" transform="translate(-5.77 -151.08)"/><line class="cls-2" x1="54.44" y1="111.22" x2="58.91" y2="101.11"/><path class="cls-1" d="M141.79,183.4c-24.39,31.54-25.66,32-25.66,32s-28,31.78-3.32,50.29c5.74,2.94,20.93,8.16,32.68-10.28.13,12.71-3.19,19.86.51,48.33,4.09,14.93,5.39,51.64,43.4,37.91,9.45-3.44,21.32-8.55,27.07-24.13-4.47-6.76-26.56-29-25.53-63.57s15.19-51.19,24-60.51c1.05-4.21,7.59-26.77-21.07-35.36C170.89,151.23,153.61,168.12,141.79,183.4Z" transform="translate(-5.77 -151.08)"/><path d="M174.41,346.2a23.58,23.58,0,0,1-11.71-2.83c-11.17-6.24-14.3-21.29-16.58-32.27-.53-2.55-1-5-1.57-6.92,0-.06,0-.13,0-.2-2.58-19.88-1.78-29.36-1.07-37.72.17-2,.34-4,.44-6-12.28,15-27.21,9.15-31.75,6.83a1,1,0,0,1-.22-.14C105.6,262.2,102,256.2,101.3,249.1c-1.74-16.87,13.07-33.93,13.7-34.64a2.39,2.39,0,0,1,.23-.22c.39-.35,3.67-3.69,25.37-31.75h0c11.29-14.61,29.15-33.17,53.7-25.8,18.91,5.67,26.78,18.75,22.18,36.82l-.09.34a1.56,1.56,0,0,1-.36.67c-7.32,7.74-22.54,23.84-23.59,59.52-.86,29,14.76,49.07,22.27,58.7,1.3,1.66,2.33,3,3,4a1.52,1.52,0,0,1,.16,1.34c-5.83,15.8-17.49,21.2-28,25A46.2,46.2,0,0,1,174.41,346.2Zm-26.94-42.71c.55,2,1.06,4.44,1.59,7,2.16,10.42,5.13,24.69,15.1,30.26,6.11,3.42,14.43,3.26,24.74-.46,9.67-3.53,20.41-8.47,25.89-22.51-.61-.85-1.44-1.92-2.44-3.2-7.73-9.9-23.8-30.51-22.91-60.62.95-32.2,12.69-49,24.14-61.22,5.29-20.84-8-29.54-20.14-33.18-22.78-6.83-39.71,10.86-50.47,24.76h0c-19.56,25.3-24.37,30.82-25.73,32.11h0c-.14.16-14.57,16.8-13,32.36.64,6.19,3.78,11.46,9.33,15.67,5.64,2.85,19.65,7.4,30.61-9.82a1.51,1.51,0,0,1,2.77.79c0,4-.25,7.43-.56,11.07C145.73,274.71,145,284,147.47,303.49Zm-31.34-88h0Z" transform="translate(-5.77 -151.08)"/><line class="cls-2" x1="139.72" y1="104.38" x2="142.4" y2="95.9"/><circle class="cls-1" cx="276.64" cy="104.7" r="24.96"/><path d="M282.4,282.24a26.46,26.46,0,1,1,26.46-26.46A26.49,26.49,0,0,1,282.4,282.24Zm0-49.92a23.46,23.46,0,1,0,23.46,23.46A23.48,23.48,0,0,0,282.4,232.32Z" transform="translate(-5.77 -151.08)"/><path class="cls-1" d="M403.74,153.53s-50.55,5.62-74.17,24.51c3.83.51,38.56,31.41,38.56,51.19,5-6,33.19-20,37.91-10.21,4,8.55-12.25,19.79-16.34,23.36-1.15,1.15-.76,4.6.77,5.75s18.25,5.1,18.13,21.83c-.51,3.57-11.62,23.61-36.77,4.34-.77,4.72-11.49,37.79-33.19,53,5.1,3.57,99.06,39.32,144.64-11.88,7-9.31,27.06-40.46-13.54-84.12-.63-1-1.4-2.3,0-3.07s23.62-22.08-8.68-58.08C461.06,170.13,438.37,147.72,403.74,153.53Z" transform="translate(-5.77 -151.08)"/><path d="M412.23,344.22c-5.8,0-11.39-.33-16.6-.85-29.47-2.95-54.75-12.69-57.85-14.87a1.49,1.49,0,0,1-.64-1.22,1.5,1.5,0,0,1,.64-1.23c21.48-15,31.93-48.08,32.57-52a1.49,1.49,0,0,1,2.39-.95c9.43,7.23,18,9.58,24.85,6.79,6.21-2.53,9.21-8.56,9.51-10.07,0-13.13-10.92-17.65-15.61-19.58a9.88,9.88,0,0,1-1.92-.92,5.87,5.87,0,0,1-2-4.29,4.78,4.78,0,0,1,1.09-3.72c.64-.56,1.42-1.19,2.35-1.94,5.4-4.35,16.62-13.39,13.69-19.73-.66-1.37-2-2.17-4.15-2.43-9.07-1.11-27.37,8.3-31.25,13a1.49,1.49,0,0,1-2.65-1c0-18.48-33.24-48.66-37.3-49.71a1.47,1.47,0,0,1-1.22-1.08,1.51,1.51,0,0,1,.53-1.57c23.54-18.83,72.28-24.53,74.9-24.82,35-5.85,58.34,16.78,58.58,17,17.27,19.25,19,34.34,17.39,43.62-1.68,9.8-7.54,16-9,16.84a5.32,5.32,0,0,0,.45.84c37.6,40.51,24.62,71.23,13.53,85.95l-.07.09C464.83,338.38,436.64,344.22,412.23,344.22ZM341.49,327c6.72,3,28.57,10.76,54.44,13.34,26.42,2.65,62.8.29,86.19-25.93,10.52-14,22.71-43.24-13.47-82.15a1.3,1.3,0,0,1-.18-.23,4.42,4.42,0,0,1-.93-3.39A2.86,2.86,0,0,1,469,226.9s6.43-5.39,7.74-16.2c1.47-12.17-4.19-25.49-16.82-39.57-.16-.15-22.53-21.73-56-16.12h-.08c-.49.06-47.83,5.5-71.55,22.78,4.4,2.87,12.42,10.19,19.05,17.61,7.52,8.43,16.36,20.23,18,30.62,6.77-5.38,22.45-12.91,31.53-11.79,4,.49,5.72,2.51,6.49,4.13,3.93,8.49-8.07,18.15-14.52,23.35-.86.69-1.59,1.28-2.12,1.74a2.41,2.41,0,0,0-.2,1.42,3.08,3.08,0,0,0,.82,2.05c.13.08.73.33,1.27.55,4.8,2,17.57,7.25,17.46,22.49,0,.07,0,.13,0,.2-.31,2.14-3.7,9.38-11.35,12.51-5.23,2.13-13.89,2.75-26-5.83C370.34,285.5,360.43,312.46,341.49,327Zm128.88-97.45Zm-66.62-76.06Z" transform="translate(-5.77 -151.08)"/></svg>