<svg aria-hidden="true" style="position: absolute; width: 0; height: 0; overflow: hidden;" version="1.1" xmlns="http://www.w3.org/2000/svg" xmlns:xlink="http://www.w3.org/1999/xlink">
<defs>
<symbol id="icon-burger" viewBox="0 0 32 32">
<path d="M1.422 5.333h28.8v1.067h-28.8v-1.067z"></path>
<path d="M1.422 8.889h28.8v1.067h-28.8v-1.067z"></path>
<path d="M1.422 6.4h1.067v1.067h-1.067v-1.067z"></path>
<path d="M3.556 6.4h1.067v1.067h-1.067v-1.067z"></path>
<path d="M5.689 6.4h1.067v1.067h-1.067v-1.067z"></path>
<path d="M7.822 6.4h1.067v1.067h-1.067v-1.067z"></path>
<path d="M9.956 6.4h1.067v1.067h-1.067v-1.067z"></path>
<path d="M8.889 7.822h1.067v1.067h-1.067v-1.067z"></path>
<path d="M11.022 7.822h1.067v1.067h-1.067v-1.067z"></path>
<path d="M13.156 7.822h1.067v1.067h-1.067v-1.067z"></path>
<path d="M15.289 7.822h1.067v1.067h-1.067v-1.067z"></path>
<path d="M17.422 7.822h1.067v1.067h-1.067v-1.067z"></path>
<path d="M19.556 7.822h1.067v1.067h-1.067v-1.067z"></path>
<path d="M21.689 7.822h1.067v1.067h-1.067v-1.067z"></path>
<path d="M23.822 7.822h1.067v1.067h-1.067v-1.067z"></path>
<path d="M25.956 7.822h1.067v1.067h-1.067v-1.067z"></path>
<path d="M28.089 7.822h1.067v1.067h-1.067v-1.067z"></path>
<path d="M6.756 7.822h1.067v1.067h-1.067v-1.067z"></path>
<path d="M4.622 7.822h1.067v1.067h-1.067v-1.067z"></path>
<path d="M2.489 7.822h1.067v1.067h-1.067v-1.067z"></path>
<path d="M12.089 6.4h1.067v1.067h-1.067v-1.067z"></path>
<path d="M14.222 6.4h1.067v1.067h-1.067v-1.067z"></path>
<path d="M16.356 6.4h1.067v1.067h-1.067v-1.067z"></path>
<path d="M18.489 6.4h1.067v1.067h-1.067v-1.067z"></path>
<path d="M20.622 6.4h1.067v1.067h-1.067v-1.067z"></path>
<path d="M22.756 6.4h1.067v1.067h-1.067v-1.067z"></path>
<path d="M24.889 6.4h1.067v1.067h-1.067v-1.067z"></path>
<path d="M27.022 6.4h1.067v1.067h-1.067v-1.067z"></path>
<path d="M29.156 6.4h1.067v1.067h-1.067v-1.067z"></path>
<path d="M1.422 13.867h28.8v1.067h-28.8v-1.067z"></path>
<path d="M1.422 17.422h28.8v1.067h-28.8v-1.067z"></path>
<path d="M1.422 14.933h1.067v1.067h-1.067v-1.067z"></path>
<path d="M3.556 14.933h1.067v1.067h-1.067v-1.067z"></path>
<path d="M5.689 14.933h1.067v1.067h-1.067v-1.067z"></path>
<path d="M7.822 14.933h1.067v1.067h-1.067v-1.067z"></path>
<path d="M9.956 14.933h1.067v1.067h-1.067v-1.067z"></path>
<path d="M8.889 16.356h1.067v1.067h-1.067v-1.067z"></path>
<path d="M11.022 16.356h1.067v1.067h-1.067v-1.067z"></path>
<path d="M13.156 16.356h1.067v1.067h-1.067v-1.067z"></path>
<path d="M15.289 16.356h1.067v1.067h-1.067v-1.067z"></path>
<path d="M17.422 16.356h1.067v1.067h-1.067v-1.067z"></path>
<path d="M19.556 16.356h1.067v1.067h-1.067v-1.067z"></path>
<path d="M21.689 16.356h1.067v1.067h-1.067v-1.067z"></path>
<path d="M23.822 16.356h1.067v1.067h-1.067v-1.067z"></path>
<path d="M25.956 16.356h1.067v1.067h-1.067v-1.067z"></path>
<path d="M28.089 16.356h1.067v1.067h-1.067v-1.067z"></path>
<path d="M6.756 16.356h1.067v1.067h-1.067v-1.067z"></path>
<path d="M4.622 16.356h1.067v1.067h-1.067v-1.067z"></path>
<path d="M2.489 16.356h1.067v1.067h-1.067v-1.067z"></path>
<path d="M12.089 14.933h1.067v1.067h-1.067v-1.067z"></path>
<path d="M14.222 14.933h1.067v1.067h-1.067v-1.067z"></path>
<path d="M16.356 14.933h1.067v1.067h-1.067v-1.067z"></path>
<path d="M18.489 14.933h1.067v1.067h-1.067v-1.067z"></path>
<path d="M20.622 14.933h1.067v1.067h-1.067v-1.067z"></path>
<path d="M22.756 14.933h1.067v1.067h-1.067v-1.067z"></path>
<path d="M24.889 14.933h1.067v1.067h-1.067v-1.067z"></path>
<path d="M27.022 14.933h1.067v1.067h-1.067v-1.067z"></path>
<path d="M29.156 14.933h1.067v1.067h-1.067v-1.067z"></path>
<path d="M1.422 22.4h28.8v1.067h-28.8v-1.067z"></path>
<path d="M1.422 25.956h28.8v1.067h-28.8v-1.067z"></path>
<path d="M1.422 23.467h1.067v1.067h-1.067v-1.067z"></path>
<path d="M3.556 23.467h1.067v1.067h-1.067v-1.067z"></path>
<path d="M5.689 23.467h1.067v1.067h-1.067v-1.067z"></path>
<path d="M7.822 23.467h1.067v1.067h-1.067v-1.067z"></path>
<path d="M9.956 23.467h1.067v1.067h-1.067v-1.067z"></path>
<path d="M8.889 24.889h1.067v1.067h-1.067v-1.067z"></path>
<path d="M11.022 24.889h1.067v1.067h-1.067v-1.067z"></path>
<path d="M13.156 24.889h1.067v1.067h-1.067v-1.067z"></path>
<path d="M15.289 24.889h1.067v1.067h-1.067v-1.067z"></path>
<path d="M17.422 24.889h1.067v1.067h-1.067v-1.067z"></path>
<path d="M19.556 24.889h1.067v1.067h-1.067v-1.067z"></path>
<path d="M21.689 24.889h1.067v1.067h-1.067v-1.067z"></path>
<path d="M23.822 24.889h1.067v1.067h-1.067v-1.067z"></path>
<path d="M25.956 24.889h1.067v1.067h-1.067v-1.067z"></path>
<path d="M28.089 24.889h1.067v1.067h-1.067v-1.067z"></path>
<path d="M6.756 24.889h1.067v1.067h-1.067v-1.067z"></path>
<path d="M4.622 24.889h1.067v1.067h-1.067v-1.067z"></path>
<path d="M2.489 24.889h1.067v1.067h-1.067v-1.067z"></path>
<path d="M12.089 23.467h1.067v1.067h-1.067v-1.067z"></path>
<path d="M14.222 23.467h1.067v1.067h-1.067v-1.067z"></path>
<path d="M16.356 23.467h1.067v1.067h-1.067v-1.067z"></path>
<path d="M18.489 23.467h1.067v1.067h-1.067v-1.067z"></path>
<path d="M20.622 23.467h1.067v1.067h-1.067v-1.067z"></path>
<path d="M22.756 23.467h1.067v1.067h-1.067v-1.067z"></path>
<path d="M24.889 23.467h1.067v1.067h-1.067v-1.067z"></path>
<path d="M27.022 23.467h1.067v1.067h-1.067v-1.067z"></path>
<path d="M29.156 23.467h1.067v1.067h-1.067v-1.067z"></path>
</symbol>
<symbol id="icon-close" viewBox="0 0 32 32">
<path d="M2.844 25.942l22.949-22.949 0.754 0.754-22.949 22.949-0.754-0.754z"></path>
<path d="M5.359 28.456l22.949-22.949 0.754 0.754-22.949 22.949-0.754-0.754z"></path>
<path d="M3.599 26.696l0.85-0.85 0.754 0.754-0.85 0.85-0.754-0.754z"></path>
<path d="M5.299 24.996l0.85-0.85 0.754 0.754-0.85 0.85-0.754-0.754z"></path>
<path d="M6.998 23.296l0.85-0.85 0.754 0.754-0.85 0.85-0.754-0.754z"></path>
<path d="M8.698 21.597l0.85-0.85 0.754 0.754-0.85 0.85-0.754-0.754z"></path>
<path d="M10.398 19.897l0.85-0.85 0.754 0.754-0.85 0.85-0.754-0.754z"></path>
<path d="M10.554 21.752l0.85-0.85 0.754 0.754-0.85 0.85-0.754-0.754z"></path>
<path d="M12.254 20.052l0.85-0.85 0.754 0.754-0.85 0.85-0.754-0.754z"></path>
<path d="M13.954 18.352l0.85-0.85 0.754 0.754-0.85 0.85-0.754-0.754z"></path>
<path d="M17.354 14.953l0.85-0.85 0.754 0.754-0.85 0.85-0.754-0.754z"></path>
<path d="M19.054 13.253l0.85-0.85 0.754 0.754-0.85 0.85-0.754-0.754z"></path>
<path d="M20.754 11.553l0.85-0.85 0.754 0.754-0.85 0.85-0.754-0.754z"></path>
<path d="M22.453 9.853l0.85-0.85 0.754 0.754-0.85 0.85-0.754-0.754z"></path>
<path d="M24.153 8.153l0.85-0.85 0.754 0.754-0.85 0.85-0.754-0.754z"></path>
<path d="M25.853 6.453l0.85-0.85 0.754 0.754-0.85 0.85-0.754-0.754z"></path>
<path d="M8.854 23.452l0.85-0.85 0.754 0.754-0.85 0.85-0.754-0.754z"></path>
<path d="M7.154 25.152l0.85-0.85 0.754 0.754-0.85 0.85-0.754-0.754z"></path>
<path d="M5.454 26.852l0.85-0.85 0.754 0.754-0.85 0.85-0.754-0.754z"></path>
<path d="M12.098 18.197l0.85-0.85 0.754 0.754-0.85 0.85-0.754-0.754z"></path>
<path d="M17.198 13.097l0.85-0.85 0.754 0.754-0.85 0.85-0.754-0.754z"></path>
<path d="M18.898 11.397l0.85-0.85 0.754 0.754-0.85 0.85-0.754-0.754z"></path>
<path d="M20.598 9.697l0.85-0.85 0.754 0.754-0.85 0.85-0.754-0.754z"></path>
<path d="M22.298 7.997l0.85-0.85 0.754 0.754-0.85 0.85-0.754-0.754z"></path>
<path d="M23.998 6.297l0.85-0.85 0.754 0.754-0.85 0.85-0.754-0.754z"></path>
<path d="M25.698 4.597l0.85-0.85 0.754 0.754-0.85 0.85-0.754-0.754z"></path>
<path d="M25.848 29.062l-22.949-22.949 0.754-0.754 22.949 22.949-0.754 0.754z"></path>
<path d="M28.362 26.548l-22.949-22.949 0.754-0.754 22.949 22.949-0.754 0.754z"></path>
<path d="M26.602 28.308l-0.85-0.85 0.754-0.754 0.85 0.85-0.754 0.754z"></path>
<path d="M24.903 26.608l-0.85-0.85 0.754-0.754 0.85 0.85-0.754 0.754z"></path>
<path d="M23.203 24.908l-0.85-0.85 0.754-0.754 0.85 0.85-0.754 0.754z"></path>
<path d="M21.503 23.208l-0.85-0.85 0.754-0.754 0.85 0.85-0.754 0.754z"></path>
<path d="M19.803 21.508l-0.85-0.85 0.754-0.754 0.85 0.85-0.754 0.754z"></path>
<path d="M21.658 21.352l-0.85-0.85 0.754-0.754 0.85 0.85-0.754 0.754z"></path>
<path d="M19.959 19.652l-0.85-0.85 0.754-0.754 0.85 0.85-0.754 0.754z"></path>
<path d="M18.259 17.952l-0.85-0.85 0.754-0.754 0.85 0.85-0.754 0.754z"></path>
<path d="M14.772 16.893l-0.85-0.85 0.754-0.754 0.85 0.85-0.754 0.754z"></path>
<path d="M14.859 14.552l-0.85-0.85 0.754-0.754 0.85 0.85-0.754 0.754z"></path>
<path d="M13.159 12.852l-0.85-0.85 0.754-0.754 0.85 0.85-0.754 0.754z"></path>
<path d="M11.459 11.153l-0.85-0.85 0.754-0.754 0.85 0.85-0.754 0.754z"></path>
<path d="M9.759 9.453l-0.85-0.85 0.754-0.754 0.85 0.85-0.754 0.754z"></path>
<path d="M8.059 7.753l-0.85-0.85 0.754-0.754 0.85 0.85-0.754 0.754z"></path>
<path d="M6.359 6.053l-0.85-0.85 0.754-0.754 0.85 0.85-0.754 0.754z"></path>
<path d="M23.358 23.052l-0.85-0.85 0.754-0.754 0.85 0.85-0.754 0.754z"></path>
<path d="M25.058 24.752l-0.85-0.85 0.754-0.754 0.85 0.85-0.754 0.754z"></path>
<path d="M26.758 26.452l-0.85-0.85 0.754-0.754 0.85 0.85-0.754 0.754z"></path>
<path d="M18.103 19.808l-0.85-0.85 0.754-0.754 0.85 0.85-0.754 0.754z"></path>
<path d="M16.592 17.291l-0.893-0.893 0.754-0.754 0.893 0.893-0.754 0.754z"></path>
<path d="M16.194 15.471l-0.85-0.85 0.754-0.754 0.85 0.85-0.754 0.754z"></path>
<path d="M13.003 14.708l-0.85-0.85 0.754-0.754 0.85 0.85-0.754 0.754z"></path>
<path d="M11.303 13.008l-0.85-0.85 0.754-0.754 0.85 0.85-0.754 0.754z"></path>
<path d="M9.603 11.308l-0.85-0.85 0.754-0.754 0.85 0.85-0.754 0.754z"></path>
<path d="M7.903 9.608l-0.85-0.85 0.754-0.754 0.85 0.85-0.754 0.754z"></path>
<path d="M6.203 7.908l-0.85-0.85 0.754-0.754 0.85 0.85-0.754 0.754z"></path>
<path d="M4.504 6.209l-0.85-0.85 0.754-0.754 0.85 0.85-0.754 0.754z"></path>
</symbol>
<symbol id="icon-black" viewBox="0 0 79 32">
<path d="M4.712 7.407c-6.063 8.205-4.558 10.66-3.507 11.855s4.684 1.898 7.591-1.292c-0.061 1.113-2.164 13.361 4.619 13.794 6.598-0.412 6.537-5.443 6.722-9.030s-0.234-15.822-0.234-15.822 0.021-5.133-4.825-5.897c-4.91-0.774-7.635 2.688-10.368 6.393z"></path>
<path d="M13.412 32.002h-0.016c-1.337-0.055-2.518-0.682-3.31-1.641l-0.006-0.008c-2.55-3.056-1.867-9.438-1.602-11.728-1.728 1.615-3.497 1.882-4.468 1.882h-0.045c-1.234-0.010-2.361-0.426-2.941-1.087-1.389-1.576-2.248-4.387 3.492-12.164v0c2.529-3.424 5.398-7.305 10.604-6.487 4.994 0.787 5.030 6.084 5.030 6.138 0 0.113 0.41 12.275 0.226 15.829 0 0.162-0.015 0.323-0.023 0.485-0.17 3.532-0.401 8.372-6.926 8.78zM9.072 17.303l-0.037 0.68c0 0.108-0.029 0.304-0.060 0.573-0.245 2.111-0.993 8.536 1.478 11.495 0.714 0.86 1.767 1.419 2.951 1.47l0.008 0c6.076-0.388 6.286-4.784 6.461-8.32 0.008-0.162 0.016-0.323 0.024-0.485 0.183-3.537-0.223-15.667-0.228-15.795 0-0.21-0.042-4.944-4.619-5.666s-7.081 2.158-10.14 6.299v0c-6.243 8.452-4.334 10.625-3.518 11.552 0.368 0.418 1.265 0.911 2.584 0.922 0.969 0 2.865-0.27 4.644-2.224z"></path>
<path d="M21.97 5.22c-3.939 5.094-4.145 5.169-4.145 5.169s-4.523 5.133-0.536 8.123c0.927 0.475 3.381 1.318 5.278-1.66 0.021 2.053-0.515 3.208 0.082 7.806 0.661 2.411 0.871 8.341 7.010 6.123 1.526-0.556 3.444-1.381 4.372-3.897-0.722-1.092-4.29-4.684-4.124-10.268s2.453-8.268 3.876-9.773c0.17-0.68 1.226-4.324-3.403-5.711-3.712-1.106-6.503 1.622-8.412 4.090z"></path>
<path d="M27.238 31.515c-0.024 0.001-0.052 0.001-0.081 0.001-0.663 0-1.287-0.17-1.83-0.468l0.020 0.010c-1.804-1.008-2.31-3.439-2.678-5.212-0.086-0.412-0.162-0.808-0.254-1.118v-0.032c-0.417-3.211-0.288-4.742-0.173-6.092 0.027-0.323 0.055-0.646 0.071-0.969-1.983 2.423-4.395 1.478-5.128 1.103l-0.036-0.023c-1.026-0.767-1.607-1.736-1.72-2.883-0.281-2.725 2.111-5.48 2.213-5.595l0.053-0.050c0.116-0.115 0.774-0.837 4.082-5.114v0c1.824-2.36 4.708-5.358 8.674-4.167 3.054 0.916 4.325 3.028 3.582 5.947l-0.029 0.116-0.044 0.047c-1.182 1.25-3.641 3.851-3.81 9.614-0.139 4.684 2.384 7.926 3.597 9.481 0.21 0.268 0.376 0.485 0.485 0.646l0.068 0.102-0.042 0.115c-0.942 2.552-2.825 3.424-4.523 4.038-0.738 0.296-1.593 0.478-2.486 0.504l-0.011 0zM22.887 24.617c0.089 0.323 0.171 0.717 0.257 1.131 0.349 1.683 0.829 3.988 2.439 4.888 0.987 0.552 2.331 0.527 3.996-0.074 1.562-0.57 3.297-1.368 4.182-3.636-0.099-0.137-0.233-0.31-0.394-0.517-1.249-1.599-3.844-4.928-3.7-9.791 0.153-5.201 2.050-7.914 3.899-9.888 0.854-3.366-1.292-4.771-3.253-5.359-3.679-1.103-6.414 1.754-8.152 3.999v0c-3.159 4.086-3.936 4.978-4.156 5.186v0c-0.023 0.026-2.353 2.713-2.1 5.227 0.103 1 0.611 1.851 1.507 2.531 0.911 0.46 3.174 1.195 4.944-1.586l0.439-0.688 0.008 0.816c0 0.646-0.040 1.2-0.090 1.788-0.107 1.326-0.224 2.827 0.174 5.975z"></path>
<path d="M48.714 16.911c0 2.227-1.805 4.032-4.032 4.032s-4.032-1.805-4.032-4.032c0-2.227 1.805-4.032 4.032-4.032s4.032 1.805 4.032 4.032z"></path>
<path d="M44.681 21.185c-2.36 0-4.274-1.913-4.274-4.274s1.913-4.274 4.274-4.274c2.36 0 4.274 1.913 4.274 4.274v0c-0.003 2.359-1.915 4.271-4.273 4.274h-0zM44.681 13.122c-2.093 0-3.789 1.697-3.789 3.789s1.697 3.789 3.789 3.789c2.093 0 3.789-1.697 3.789-3.789v0c-0.002-2.092-1.697-3.787-3.789-3.789h-0z"></path>
<path d="M64.279 0.396s-8.165 0.908-11.98 3.959c0.619 0.082 6.228 5.073 6.228 8.268 0.808-0.969 5.361-3.23 6.123-1.649 0.646 1.381-1.979 3.196-2.639 3.773-0.186 0.186-0.123 0.743 0.124 0.929s2.948 0.824 2.928 3.526c-0.082 0.577-1.877 3.813-5.939 0.701-0.124 0.762-1.856 6.104-5.361 8.56 0.824 0.577 16 6.351 23.362-1.919 1.131-1.504 4.371-6.535-2.187-13.587-0.102-0.162-0.226-0.371 0-0.496s3.815-3.566-1.402-9.381c0-0.003-3.665-3.623-9.258-2.684z"></path>
<path d="M65.651 31.196c-0.937 0-1.84-0.053-2.681-0.137-4.76-0.476-8.843-2.050-9.344-2.402l-0.288-0.197 0.284-0.199c3.469-2.423 5.157-7.766 5.261-8.399l0.065-0.401 0.323 0.247c1.523 1.168 2.907 1.547 4.014 1.097 1.003-0.409 1.488-1.383 1.536-1.627 0-2.121-1.764-2.851-2.521-3.163-0.119-0.042-0.221-0.092-0.317-0.152l0.007 0.004c-0.194-0.17-0.317-0.417-0.323-0.692l-0-0.001c-0.004-0.031-0.007-0.066-0.007-0.102 0-0.191 0.069-0.365 0.184-0.5l-0.001 0.001c0.103-0.090 0.229-0.192 0.38-0.313 0.872-0.703 2.684-2.163 2.211-3.187-0.107-0.221-0.323-0.351-0.67-0.393-1.465-0.179-4.421 1.341-5.047 2.1l-0.428 0.517v-0.672c0-2.985-5.369-7.859-6.025-8.029l-0.562-0.074 0.451-0.354c3.802-3.041 11.675-3.962 12.098-4.009 5.653-0.945 9.423 2.71 9.462 2.746 2.789 3.109 3.069 5.547 2.809 7.045-0.271 1.583-1.218 2.584-1.454 2.72 0.022 0.052 0.047 0.097 0.075 0.139l-0.002-0.003c6.073 6.543 3.977 11.505 2.185 13.882l-0.011 0.015c-3.166 3.549-7.719 4.492-11.662 4.492zM54.225 28.414c1.085 0.485 4.615 1.738 8.793 2.155 4.267 0.428 10.143 0.047 13.921-4.188 1.699-2.261 3.668-6.984-2.176-13.269l-0.029-0.037c-0.098-0.121-0.157-0.277-0.157-0.447 0-0.035 0.003-0.070 0.008-0.104l-0 0.004c0.038-0.124 0.123-0.223 0.233-0.28l0.003-0.001s1.039-0.871 1.25-2.617c0.237-1.966-0.677-4.117-2.717-6.391-0.026-0.024-3.639-3.51-9.045-2.604h-0.013c-0.079 0.010-7.725 0.888-11.557 3.679 0.711 0.464 2.006 1.646 3.077 2.844 1.215 1.362 2.642 3.268 2.907 4.946 1.093-0.869 3.626-2.085 5.093-1.904 0.646 0.079 0.924 0.405 1.048 0.667 0.635 1.371-1.303 2.932-2.345 3.771-0.139 0.111-0.257 0.207-0.342 0.281-0.024 0.049-0.037 0.106-0.037 0.166 0 0.022 0.002 0.044 0.005 0.065l-0-0.002c0.002 0.128 0.052 0.244 0.133 0.331l-0-0c0.021 0.013 0.118 0.053 0.205 0.089 0.775 0.323 2.838 1.171 2.82 3.633v0.032c-0.050 0.346-0.598 1.515-1.833 2.021-0.845 0.344-2.243 0.444-4.199-0.942-0.384 1.399-1.985 5.753-5.044 8.102z"></path>
</symbol>
</defs>
</svg>
