<svg aria-hidden="true" style="position: absolute; width: 0; height: 0; overflow: hidden;" version="1.1" xmlns="http://www.w3.org/2000/svg" xmlns:xlink="http://www.w3.org/1999/xlink">
<defs>
<symbol id="icon-burger" viewBox="0 0 32 32">
<path d="M1.422 5.333h28.8v1.067h-28.8v-1.067z"></path>
<path d="M1.422 8.889h28.8v1.067h-28.8v-1.067z"></path>
<path d="M1.422 6.4h1.067v1.067h-1.067v-1.067z"></path>
<path d="M3.556 6.4h1.067v1.067h-1.067v-1.067z"></path>
<path d="M5.689 6.4h1.067v1.067h-1.067v-1.067z"></path>
<path d="M7.822 6.4h1.067v1.067h-1.067v-1.067z"></path>
<path d="M9.956 6.4h1.067v1.067h-1.067v-1.067z"></path>
<path d="M8.889 7.822h1.067v1.067h-1.067v-1.067z"></path>
<path d="M11.022 7.822h1.067v1.067h-1.067v-1.067z"></path>
<path d="M13.156 7.822h1.067v1.067h-1.067v-1.067z"></path>
<path d="M15.289 7.822h1.067v1.067h-1.067v-1.067z"></path>
<path d="M17.422 7.822h1.067v1.067h-1.067v-1.067z"></path>
<path d="M19.556 7.822h1.067v1.067h-1.067v-1.067z"></path>
<path d="M21.689 7.822h1.067v1.067h-1.067v-1.067z"></path>
<path d="M23.822 7.822h1.067v1.067h-1.067v-1.067z"></path>
<path d="M25.956 7.822h1.067v1.067h-1.067v-1.067z"></path>
<path d="M28.089 7.822h1.067v1.067h-1.067v-1.067z"></path>
<path d="M6.756 7.822h1.067v1.067h-1.067v-1.067z"></path>
<path d="M4.622 7.822h1.067v1.067h-1.067v-1.067z"></path>
<path d="M2.489 7.822h1.067v1.067h-1.067v-1.067z"></path>
<path d="M12.089 6.4h1.067v1.067h-1.067v-1.067z"></path>
<path d="M14.222 6.4h1.067v1.067h-1.067v-1.067z"></path>
<path d="M16.356 6.4h1.067v1.067h-1.067v-1.067z"></path>
<path d="M18.489 6.4h1.067v1.067h-1.067v-1.067z"></path>
<path d="M20.622 6.4h1.067v1.067h-1.067v-1.067z"></path>
<path d="M22.756 6.4h1.067v1.067h-1.067v-1.067z"></path>
<path d="M24.889 6.4h1.067v1.067h-1.067v-1.067z"></path>
<path d="M27.022 6.4h1.067v1.067h-1.067v-1.067z"></path>
<path d="M29.156 6.4h1.067v1.067h-1.067v-1.067z"></path>
<path d="M1.422 13.867h28.8v1.067h-28.8v-1.067z"></path>
<path d="M1.422 17.422h28.8v1.067h-28.8v-1.067z"></path>
<path d="M1.422 14.933h1.067v1.067h-1.067v-1.067z"></path>
<path d="M3.556 14.933h1.067v1.067h-1.067v-1.067z"></path>
<path d="M5.689 14.933h1.067v1.067h-1.067v-1.067z"></path>
<path d="M7.822 14.933h1.067v1.067h-1.067v-1.067z"></path>
<path d="M9.956 14.933h1.067v1.067h-1.067v-1.067z"></path>
<path d="M8.889 16.356h1.067v1.067h-1.067v-1.067z"></path>
<path d="M11.022 16.356h1.067v1.067h-1.067v-1.067z"></path>
<path d="M13.156 16.356h1.067v1.067h-1.067v-1.067z"></path>
<path d="M15.289 16.356h1.067v1.067h-1.067v-1.067z"></path>
<path d="M17.422 16.356h1.067v1.067h-1.067v-1.067z"></path>
<path d="M19.556 16.356h1.067v1.067h-1.067v-1.067z"></path>
<path d="M21.689 16.356h1.067v1.067h-1.067v-1.067z"></path>
<path d="M23.822 16.356h1.067v1.067h-1.067v-1.067z"></path>
<path d="M25.956 16.356h1.067v1.067h-1.067v-1.067z"></path>
<path d="M28.089 16.356h1.067v1.067h-1.067v-1.067z"></path>
<path d="M6.756 16.356h1.067v1.067h-1.067v-1.067z"></path>
<path d="M4.622 16.356h1.067v1.067h-1.067v-1.067z"></path>
<path d="M2.489 16.356h1.067v1.067h-1.067v-1.067z"></path>
<path d="M12.089 14.933h1.067v1.067h-1.067v-1.067z"></path>
<path d="M14.222 14.933h1.067v1.067h-1.067v-1.067z"></path>
<path d="M16.356 14.933h1.067v1.067h-1.067v-1.067z"></path>
<path d="M18.489 14.933h1.067v1.067h-1.067v-1.067z"></path>
<path d="M20.622 14.933h1.067v1.067h-1.067v-1.067z"></path>
<path d="M22.756 14.933h1.067v1.067h-1.067v-1.067z"></path>
<path d="M24.889 14.933h1.067v1.067h-1.067v-1.067z"></path>
<path d="M27.022 14.933h1.067v1.067h-1.067v-1.067z"></path>
<path d="M29.156 14.933h1.067v1.067h-1.067v-1.067z"></path>
<path d="M1.422 22.4h28.8v1.067h-28.8v-1.067z"></path>
<path d="M1.422 25.956h28.8v1.067h-28.8v-1.067z"></path>
<path d="M1.422 23.467h1.067v1.067h-1.067v-1.067z"></path>
<path d="M3.556 23.467h1.067v1.067h-1.067v-1.067z"></path>
<path d="M5.689 23.467h1.067v1.067h-1.067v-1.067z"></path>
<path d="M7.822 23.467h1.067v1.067h-1.067v-1.067z"></path>
<path d="M9.956 23.467h1.067v1.067h-1.067v-1.067z"></path>
<path d="M8.889 24.889h1.067v1.067h-1.067v-1.067z"></path>
<path d="M11.022 24.889h1.067v1.067h-1.067v-1.067z"></path>
<path d="M13.156 24.889h1.067v1.067h-1.067v-1.067z"></path>
<path d="M15.289 24.889h1.067v1.067h-1.067v-1.067z"></path>
<path d="M17.422 24.889h1.067v1.067h-1.067v-1.067z"></path>
<path d="M19.556 24.889h1.067v1.067h-1.067v-1.067z"></path>
<path d="M21.689 24.889h1.067v1.067h-1.067v-1.067z"></path>
<path d="M23.822 24.889h1.067v1.067h-1.067v-1.067z"></path>
<path d="M25.956 24.889h1.067v1.067h-1.067v-1.067z"></path>
<path d="M28.089 24.889h1.067v1.067h-1.067v-1.067z"></path>
<path d="M6.756 24.889h1.067v1.067h-1.067v-1.067z"></path>
<path d="M4.622 24.889h1.067v1.067h-1.067v-1.067z"></path>
<path d="M2.489 24.889h1.067v1.067h-1.067v-1.067z"></path>
<path d="M12.089 23.467h1.067v1.067h-1.067v-1.067z"></path>
<path d="M14.222 23.467h1.067v1.067h-1.067v-1.067z"></path>
<path d="M16.356 23.467h1.067v1.067h-1.067v-1.067z"></path>
<path d="M18.489 23.467h1.067v1.067h-1.067v-1.067z"></path>
<path d="M20.622 23.467h1.067v1.067h-1.067v-1.067z"></path>
<path d="M22.756 23.467h1.067v1.067h-1.067v-1.067z"></path>
<path d="M24.889 23.467h1.067v1.067h-1.067v-1.067z"></path>
<path d="M27.022 23.467h1.067v1.067h-1.067v-1.067z"></path>
<path d="M29.156 23.467h1.067v1.067h-1.067v-1.067z"></path>
</symbol>
</defs>
</svg>
