<svg aria-hidden="true" style="position: absolute; width: 0; height: 0; overflow: hidden;" version="1.1" xmlns="http://www.w3.org/2000/svg" xmlns:xlink="http://www.w3.org/1999/xlink">
<defs>
<symbol id="icon-burger" viewBox="0 0 32 32">
<path d="M1.422 5.333h28.8v1.067h-28.8v-1.067z"></path>
<path d="M1.422 8.889h28.8v1.067h-28.8v-1.067z"></path>
<path d="M1.422 6.4h1.067v1.067h-1.067v-1.067z"></path>
<path d="M3.556 6.4h1.067v1.067h-1.067v-1.067z"></path>
<path d="M5.689 6.4h1.067v1.067h-1.067v-1.067z"></path>
<path d="M7.822 6.4h1.067v1.067h-1.067v-1.067z"></path>
<path d="M9.956 6.4h1.067v1.067h-1.067v-1.067z"></path>
<path d="M8.889 7.822h1.067v1.067h-1.067v-1.067z"></path>
<path d="M11.022 7.822h1.067v1.067h-1.067v-1.067z"></path>
<path d="M13.156 7.822h1.067v1.067h-1.067v-1.067z"></path>
<path d="M15.289 7.822h1.067v1.067h-1.067v-1.067z"></path>
<path d="M17.422 7.822h1.067v1.067h-1.067v-1.067z"></path>
<path d="M19.556 7.822h1.067v1.067h-1.067v-1.067z"></path>
<path d="M21.689 7.822h1.067v1.067h-1.067v-1.067z"></path>
<path d="M23.822 7.822h1.067v1.067h-1.067v-1.067z"></path>
<path d="M25.956 7.822h1.067v1.067h-1.067v-1.067z"></path>
<path d="M28.089 7.822h1.067v1.067h-1.067v-1.067z"></path>
<path d="M6.756 7.822h1.067v1.067h-1.067v-1.067z"></path>
<path d="M4.622 7.822h1.067v1.067h-1.067v-1.067z"></path>
<path d="M2.489 7.822h1.067v1.067h-1.067v-1.067z"></path>
<path d="M12.089 6.4h1.067v1.067h-1.067v-1.067z"></path>
<path d="M14.222 6.4h1.067v1.067h-1.067v-1.067z"></path>
<path d="M16.356 6.4h1.067v1.067h-1.067v-1.067z"></path>
<path d="M18.489 6.4h1.067v1.067h-1.067v-1.067z"></path>
<path d="M20.622 6.4h1.067v1.067h-1.067v-1.067z"></path>
<path d="M22.756 6.4h1.067v1.067h-1.067v-1.067z"></path>
<path d="M24.889 6.4h1.067v1.067h-1.067v-1.067z"></path>
<path d="M27.022 6.4h1.067v1.067h-1.067v-1.067z"></path>
<path d="M29.156 6.4h1.067v1.067h-1.067v-1.067z"></path>
<path d="M1.422 13.867h28.8v1.067h-28.8v-1.067z"></path>
<path d="M1.422 17.422h28.8v1.067h-28.8v-1.067z"></path>
<path d="M1.422 14.933h1.067v1.067h-1.067v-1.067z"></path>
<path d="M3.556 14.933h1.067v1.067h-1.067v-1.067z"></path>
<path d="M5.689 14.933h1.067v1.067h-1.067v-1.067z"></path>
<path d="M7.822 14.933h1.067v1.067h-1.067v-1.067z"></path>
<path d="M9.956 14.933h1.067v1.067h-1.067v-1.067z"></path>
<path d="M8.889 16.356h1.067v1.067h-1.067v-1.067z"></path>
<path d="M11.022 16.356h1.067v1.067h-1.067v-1.067z"></path>
<path d="M13.156 16.356h1.067v1.067h-1.067v-1.067z"></path>
<path d="M15.289 16.356h1.067v1.067h-1.067v-1.067z"></path>
<path d="M17.422 16.356h1.067v1.067h-1.067v-1.067z"></path>
<path d="M19.556 16.356h1.067v1.067h-1.067v-1.067z"></path>
<path d="M21.689 16.356h1.067v1.067h-1.067v-1.067z"></path>
<path d="M23.822 16.356h1.067v1.067h-1.067v-1.067z"></path>
<path d="M25.956 16.356h1.067v1.067h-1.067v-1.067z"></path>
<path d="M28.089 16.356h1.067v1.067h-1.067v-1.067z"></path>
<path d="M6.756 16.356h1.067v1.067h-1.067v-1.067z"></path>
<path d="M4.622 16.356h1.067v1.067h-1.067v-1.067z"></path>
<path d="M2.489 16.356h1.067v1.067h-1.067v-1.067z"></path>
<path d="M12.089 14.933h1.067v1.067h-1.067v-1.067z"></path>
<path d="M14.222 14.933h1.067v1.067h-1.067v-1.067z"></path>
<path d="M16.356 14.933h1.067v1.067h-1.067v-1.067z"></path>
<path d="M18.489 14.933h1.067v1.067h-1.067v-1.067z"></path>
<path d="M20.622 14.933h1.067v1.067h-1.067v-1.067z"></path>
<path d="M22.756 14.933h1.067v1.067h-1.067v-1.067z"></path>
<path d="M24.889 14.933h1.067v1.067h-1.067v-1.067z"></path>
<path d="M27.022 14.933h1.067v1.067h-1.067v-1.067z"></path>
<path d="M29.156 14.933h1.067v1.067h-1.067v-1.067z"></path>
<path d="M1.422 22.4h28.8v1.067h-28.8v-1.067z"></path>
<path d="M1.422 25.956h28.8v1.067h-28.8v-1.067z"></path>
<path d="M1.422 23.467h1.067v1.067h-1.067v-1.067z"></path>
<path d="M3.556 23.467h1.067v1.067h-1.067v-1.067z"></path>
<path d="M5.689 23.467h1.067v1.067h-1.067v-1.067z"></path>
<path d="M7.822 23.467h1.067v1.067h-1.067v-1.067z"></path>
<path d="M9.956 23.467h1.067v1.067h-1.067v-1.067z"></path>
<path d="M8.889 24.889h1.067v1.067h-1.067v-1.067z"></path>
<path d="M11.022 24.889h1.067v1.067h-1.067v-1.067z"></path>
<path d="M13.156 24.889h1.067v1.067h-1.067v-1.067z"></path>
<path d="M15.289 24.889h1.067v1.067h-1.067v-1.067z"></path>
<path d="M17.422 24.889h1.067v1.067h-1.067v-1.067z"></path>
<path d="M19.556 24.889h1.067v1.067h-1.067v-1.067z"></path>
<path d="M21.689 24.889h1.067v1.067h-1.067v-1.067z"></path>
<path d="M23.822 24.889h1.067v1.067h-1.067v-1.067z"></path>
<path d="M25.956 24.889h1.067v1.067h-1.067v-1.067z"></path>
<path d="M28.089 24.889h1.067v1.067h-1.067v-1.067z"></path>
<path d="M6.756 24.889h1.067v1.067h-1.067v-1.067z"></path>
<path d="M4.622 24.889h1.067v1.067h-1.067v-1.067z"></path>
<path d="M2.489 24.889h1.067v1.067h-1.067v-1.067z"></path>
<path d="M12.089 23.467h1.067v1.067h-1.067v-1.067z"></path>
<path d="M14.222 23.467h1.067v1.067h-1.067v-1.067z"></path>
<path d="M16.356 23.467h1.067v1.067h-1.067v-1.067z"></path>
<path d="M18.489 23.467h1.067v1.067h-1.067v-1.067z"></path>
<path d="M20.622 23.467h1.067v1.067h-1.067v-1.067z"></path>
<path d="M22.756 23.467h1.067v1.067h-1.067v-1.067z"></path>
<path d="M24.889 23.467h1.067v1.067h-1.067v-1.067z"></path>
<path d="M27.022 23.467h1.067v1.067h-1.067v-1.067z"></path>
<path d="M29.156 23.467h1.067v1.067h-1.067v-1.067z"></path>
</symbol>
<symbol id="icon-close" viewBox="0 0 32 32">
<path d="M2.844 25.942l22.949-22.949 0.754 0.754-22.949 22.949-0.754-0.754z"></path>
<path d="M5.359 28.456l22.949-22.949 0.754 0.754-22.949 22.949-0.754-0.754z"></path>
<path d="M3.599 26.696l0.85-0.85 0.754 0.754-0.85 0.85-0.754-0.754z"></path>
<path d="M5.299 24.996l0.85-0.85 0.754 0.754-0.85 0.85-0.754-0.754z"></path>
<path d="M6.998 23.296l0.85-0.85 0.754 0.754-0.85 0.85-0.754-0.754z"></path>
<path d="M8.698 21.597l0.85-0.85 0.754 0.754-0.85 0.85-0.754-0.754z"></path>
<path d="M10.398 19.897l0.85-0.85 0.754 0.754-0.85 0.85-0.754-0.754z"></path>
<path d="M10.554 21.752l0.85-0.85 0.754 0.754-0.85 0.85-0.754-0.754z"></path>
<path d="M12.254 20.052l0.85-0.85 0.754 0.754-0.85 0.85-0.754-0.754z"></path>
<path d="M13.954 18.352l0.85-0.85 0.754 0.754-0.85 0.85-0.754-0.754z"></path>
<path d="M17.354 14.953l0.85-0.85 0.754 0.754-0.85 0.85-0.754-0.754z"></path>
<path d="M19.054 13.253l0.85-0.85 0.754 0.754-0.85 0.85-0.754-0.754z"></path>
<path d="M20.754 11.553l0.85-0.85 0.754 0.754-0.85 0.85-0.754-0.754z"></path>
<path d="M22.453 9.853l0.85-0.85 0.754 0.754-0.85 0.85-0.754-0.754z"></path>
<path d="M24.153 8.153l0.85-0.85 0.754 0.754-0.85 0.85-0.754-0.754z"></path>
<path d="M25.853 6.453l0.85-0.85 0.754 0.754-0.85 0.85-0.754-0.754z"></path>
<path d="M8.854 23.452l0.85-0.85 0.754 0.754-0.85 0.85-0.754-0.754z"></path>
<path d="M7.154 25.152l0.85-0.85 0.754 0.754-0.85 0.85-0.754-0.754z"></path>
<path d="M5.454 26.852l0.85-0.85 0.754 0.754-0.85 0.85-0.754-0.754z"></path>
<path d="M12.098 18.197l0.85-0.85 0.754 0.754-0.85 0.85-0.754-0.754z"></path>
<path d="M17.198 13.097l0.85-0.85 0.754 0.754-0.85 0.85-0.754-0.754z"></path>
<path d="M18.898 11.397l0.85-0.85 0.754 0.754-0.85 0.85-0.754-0.754z"></path>
<path d="M20.598 9.697l0.85-0.85 0.754 0.754-0.85 0.85-0.754-0.754z"></path>
<path d="M22.298 7.997l0.85-0.85 0.754 0.754-0.85 0.85-0.754-0.754z"></path>
<path d="M23.998 6.297l0.85-0.85 0.754 0.754-0.85 0.85-0.754-0.754z"></path>
<path d="M25.698 4.597l0.85-0.85 0.754 0.754-0.85 0.85-0.754-0.754z"></path>
<path d="M25.848 29.062l-22.949-22.949 0.754-0.754 22.949 22.949-0.754 0.754z"></path>
<path d="M28.362 26.548l-22.949-22.949 0.754-0.754 22.949 22.949-0.754 0.754z"></path>
<path d="M26.602 28.308l-0.85-0.85 0.754-0.754 0.85 0.85-0.754 0.754z"></path>
<path d="M24.903 26.608l-0.85-0.85 0.754-0.754 0.85 0.85-0.754 0.754z"></path>
<path d="M23.203 24.908l-0.85-0.85 0.754-0.754 0.85 0.85-0.754 0.754z"></path>
<path d="M21.503 23.208l-0.85-0.85 0.754-0.754 0.85 0.85-0.754 0.754z"></path>
<path d="M19.803 21.508l-0.85-0.85 0.754-0.754 0.85 0.85-0.754 0.754z"></path>
<path d="M21.658 21.352l-0.85-0.85 0.754-0.754 0.85 0.85-0.754 0.754z"></path>
<path d="M19.959 19.652l-0.85-0.85 0.754-0.754 0.85 0.85-0.754 0.754z"></path>
<path d="M18.259 17.952l-0.85-0.85 0.754-0.754 0.85 0.85-0.754 0.754z"></path>
<path d="M14.772 16.893l-0.85-0.85 0.754-0.754 0.85 0.85-0.754 0.754z"></path>
<path d="M14.859 14.552l-0.85-0.85 0.754-0.754 0.85 0.85-0.754 0.754z"></path>
<path d="M13.159 12.852l-0.85-0.85 0.754-0.754 0.85 0.85-0.754 0.754z"></path>
<path d="M11.459 11.153l-0.85-0.85 0.754-0.754 0.85 0.85-0.754 0.754z"></path>
<path d="M9.759 9.453l-0.85-0.85 0.754-0.754 0.85 0.85-0.754 0.754z"></path>
<path d="M8.059 7.753l-0.85-0.85 0.754-0.754 0.85 0.85-0.754 0.754z"></path>
<path d="M6.359 6.053l-0.85-0.85 0.754-0.754 0.85 0.85-0.754 0.754z"></path>
<path d="M23.358 23.052l-0.85-0.85 0.754-0.754 0.85 0.85-0.754 0.754z"></path>
<path d="M25.058 24.752l-0.85-0.85 0.754-0.754 0.85 0.85-0.754 0.754z"></path>
<path d="M26.758 26.452l-0.85-0.85 0.754-0.754 0.85 0.85-0.754 0.754z"></path>
<path d="M18.103 19.808l-0.85-0.85 0.754-0.754 0.85 0.85-0.754 0.754z"></path>
<path d="M16.592 17.291l-0.893-0.893 0.754-0.754 0.893 0.893-0.754 0.754z"></path>
<path d="M16.194 15.471l-0.85-0.85 0.754-0.754 0.85 0.85-0.754 0.754z"></path>
<path d="M13.003 14.708l-0.85-0.85 0.754-0.754 0.85 0.85-0.754 0.754z"></path>
<path d="M11.303 13.008l-0.85-0.85 0.754-0.754 0.85 0.85-0.754 0.754z"></path>
<path d="M9.603 11.308l-0.85-0.85 0.754-0.754 0.85 0.85-0.754 0.754z"></path>
<path d="M7.903 9.608l-0.85-0.85 0.754-0.754 0.85 0.85-0.754 0.754z"></path>
<path d="M6.203 7.908l-0.85-0.85 0.754-0.754 0.85 0.85-0.754 0.754z"></path>
<path d="M4.504 6.209l-0.85-0.85 0.754-0.754 0.85 0.85-0.754 0.754z"></path>
</symbol>
</defs>
</svg>
